<?xml version="1.0" encoding="utf-8" standalone="no"?>
<!DOCTYPE svg PUBLIC "-//W3C//DTD SVG 1.1//EN"
  "http://www.w3.org/Graphics/SVG/1.1/DTD/svg11.dtd">
<!-- Created with matplotlib (https://matplotlib.org/) -->
<svg height="256.785705pt" version="1.1" viewBox="0 0 300.4 256.785705" width="300.4pt" xmlns="http://www.w3.org/2000/svg" xmlns:xlink="http://www.w3.org/1999/xlink">
 <defs>
  <style type="text/css">
*{stroke-linecap:butt;stroke-linejoin:round;}
  </style>
 </defs>
 <g id="figure_1">
  <g id="patch_1">
   <path d="M 0 256.785705 
L 300.4 256.785705 
L 300.4 0 
L 0 0 
z
" style="fill:none;"/>
  </g>
  <g id="axes_1">
   <g id="patch_2">
    <path d="M 10.7 246.085705 
L 289.7 246.085705 
L 289.7 10.7 
L 10.7 10.7 
z
" style="fill:none;"/>
   </g>
   <g id="patch_3">
    <path clip-path="url(#p87cea402d4)" d="M 146.576501 193.629666 
L 146.322753 192.43702 
L 145.83877 191.102265 
L 145.142308 189.625573 
L 144.252029 188.008192 
L 143.187408 186.252784 
L 141.968605 184.363753 
L 140.616293 182.347556 
L 139.151426 180.212957 
L 137.594962 177.97123 
L 135.96752 175.636275 
L 134.289009 173.224643 
L 132.578221 170.755464 
L 130.852434 168.250256 
L 129.127018 165.732652 
L 127.415096 163.228031 
L 125.727263 160.763092 
L 124.071389 158.365381 
L 122.452512 156.062823 
L 120.872822 153.88326 
L 119.331743 151.854041 
L 117.82609 150.00167 
L 116.350302 148.351528 
L 114.896721 146.927673 
L 113.455909 145.752706 
L 112.017012 144.847624 
L 110.570546 144.223005 
L 109.1118 143.870611 
L 107.637611 143.77868 
L 106.145932 143.934163 
L 104.635866 144.322935 
L 103.107683 144.929965 
L 101.562802 145.73945 
L 100.003777 146.734935 
L 98.434245 147.899417 
L 96.858875 149.21546 
L 95.283288 150.665307 
L 93.713975 152.231004 
L 92.158196 153.894544 
L 90.623874 155.638011 
L 89.119481 157.44374 
L 87.653929 159.294479 
L 86.236462 161.173551 
L 84.876556 163.065005 
L 83.583833 164.953763 
L 82.368 166.825737 
L 81.238805 168.667935 
L 80.206017 170.468534 
L 79.279444 172.216923 
L 78.468974 173.903728 
L 77.784415 175.52097 
L 77.230405 177.065611 
L 76.806467 178.539028 
L 76.512183 179.943049 
L 76.347402 181.279715 
L 76.31222 182.551225 
L 76.406941 183.759889 
L 76.632036 184.908082 
L 76.988097 185.998216 
L 77.475776 187.032701 
L 78.095722 188.013924 
L 78.848505 188.944224 
L 79.734535 189.825871 
L 80.75397 190.66105 
L 81.906617 191.451844 
L 83.191833 192.20022 
L 84.608411 192.908015 
L 86.15448 193.576928 
L 87.827392 194.208503 
L 89.623622 194.804122 
L 91.538674 195.364996 
L 93.566999 195.892153 
L 95.701929 196.386432 
L 97.935633 196.848471 
L 100.259088 197.278707 
L 102.662088 197.677358 
L 105.133267 198.044426 
L 107.660158 198.379688 
L 110.229279 198.682685 
L 112.826235 198.952722 
L 115.435854 199.188859 
L 118.042333 199.389903 
L 120.629401 199.554395 
L 123.180483 199.680608 
L 125.678871 199.766522 
L 128.10789 199.809816 
L 130.451047 199.807839 
L 132.692174 199.75759 
L 134.815548 199.655684 
L 136.805994 199.498315 
L 138.648967 199.281213 
L 140.330615 198.999591 
L 141.837828 198.648093 
L 143.158277 198.220729 
L 144.280441 197.710803 
L 145.193651 197.110842 
L 145.888129 196.412517 
L 146.355062 195.606568 
L 146.586699 194.68273 
L 146.576501 193.629666 
" style="fill:#006ba4;opacity:0.333333;stroke:#000000;stroke-linejoin:miter;stroke-width:0.5;"/>
   </g>
   <g id="patch_4">
    <path clip-path="url(#p87cea402d4)" d="M 129.657393 182.729134 
L 129.81629 182.011017 
L 129.837374 181.284221 
L 129.728015 180.550086 
L 129.495688 179.810195 
L 129.147937 179.066362 
L 128.692331 178.320608 
L 128.136438 177.575147 
L 127.487793 176.832364 
L 126.753863 176.094788 
L 125.942026 175.365072 
L 125.059535 174.645966 
L 124.1135 173.940288 
L 123.110853 173.250899 
L 122.058329 172.580677 
L 120.962438 171.932486 
L 119.829446 171.309152 
L 118.665353 170.713436 
L 117.475875 170.148009 
L 116.26643 169.615433 
L 115.04213 169.118137 
L 113.807765 168.6584 
L 112.567807 168.238338 
L 111.326405 167.859884 
L 110.08739 167.524788 
L 108.85428 167.2346 
L 107.630294 166.990671 
L 106.41836 166.79415 
L 105.221138 166.645982 
L 104.041037 166.546911 
L 102.880235 166.497485 
L 101.740707 166.498064 
L 100.624248 166.548821 
L 99.5325 166.649757 
L 98.466981 166.800707 
L 97.429117 167.001351 
L 96.420264 167.251227 
L 95.441749 167.549736 
L 94.494892 167.89616 
L 93.581041 168.289669 
L 92.701603 168.729334 
L 91.858076 169.214137 
L 91.052084 169.742981 
L 90.285406 170.314702 
L 89.560016 170.928079 
L 88.878116 171.581844 
L 88.242176 172.274689 
L 87.654973 173.005281 
L 87.119638 173.772264 
L 86.639701 174.574275 
L 86.219071 175.409818 
L 85.860527 176.274492 
L 85.565586 177.161192 
L 85.33591 178.063033 
L 85.173304 178.973498 
L 85.079652 179.886444 
L 85.056856 180.796102 
L 85.106784 181.697085 
L 85.231222 182.584377 
L 85.431834 183.453326 
L 85.710117 184.299633 
L 86.067373 185.119329 
L 86.504672 185.908762 
L 87.022824 186.664563 
L 87.622353 187.383624 
L 88.303474 188.06306 
L 89.066065 188.700181 
L 89.909652 189.292449 
L 90.833386 189.837439 
L 91.836028 190.332796 
L 92.915936 190.776189 
L 94.071049 191.165264 
L 95.298879 191.497591 
L 96.596507 191.770608 
L 97.960575 191.981567 
L 99.38702 192.128005 
L 100.869053 192.211804 
L 102.398402 192.236836 
L 103.966544 192.206591 
L 105.564714 192.124211 
L 107.183925 191.99253 
L 108.814993 191.814115 
L 110.448569 191.5913 
L 112.075178 191.326221 
L 113.685263 191.020841 
L 115.269235 190.676982 
L 116.81752 190.296352 
L 118.320615 189.880566 
L 119.769132 189.431176 
L 121.15385 188.949692 
L 122.465759 188.437614 
L 123.696102 187.89645 
L 124.836406 187.327753 
L 125.878516 186.733143 
L 126.81462 186.114343 
L 127.637264 185.473207 
L 128.339369 184.811762 
L 128.914235 184.132237 
L 129.355552 183.437107 
L 129.657393 182.729134 
" style="fill:#006ba4;opacity:0.5;stroke:#000000;stroke-linejoin:miter;stroke-width:0.5;"/>
   </g>
   <g id="patch_5">
    <path clip-path="url(#p87cea402d4)" d="M 112.268788 180.052136 
L 112.357583 179.927853 
L 112.403279 179.803605 
L 112.407584 179.679586 
L 112.372237 179.556012 
L 112.299006 179.433116 
L 112.189684 179.311152 
L 112.046079 179.190384 
L 111.870011 179.07109 
L 111.66331 178.953557 
L 111.427808 178.838081 
L 111.165335 178.724961 
L 110.87772 178.6145 
L 110.566782 178.507004 
L 110.234327 178.402776 
L 109.88215 178.302118 
L 109.512024 178.205327 
L 109.125707 178.112694 
L 108.72493 178.024504 
L 108.311403 177.941033 
L 107.886807 177.862548 
L 107.452796 177.789304 
L 107.010993 177.721545 
L 106.562993 177.659502 
L 106.110356 177.603394 
L 105.654612 177.553424 
L 105.197257 177.509784 
L 104.739756 177.472647 
L 104.28354 177.442177 
L 103.830008 177.418518 
L 103.380528 177.401802 
L 102.936437 177.392147 
L 102.499045 177.389655 
L 102.069632 177.394417 
L 101.649453 177.406507 
L 101.239741 177.425991 
L 100.841706 177.452921 
L 100.456539 177.487336 
L 100.085418 177.529269 
L 99.729506 177.578742 
L 99.389957 177.635768 
L 99.06792 177.700356 
L 98.764544 177.772506 
L 98.480977 177.852217 
L 98.218377 177.939482 
L 97.977913 178.034296 
L 97.760771 178.136652 
L 97.568157 178.246543 
L 97.401307 178.363968 
L 97.261489 178.48893 
L 97.149969 178.621414 
L 97.067113 178.76091 
L 97.012383 178.906411 
L 96.985239 179.056914 
L 96.985175 179.211433 
L 97.011712 179.369002 
L 97.064391 179.528674 
L 97.142773 179.68952 
L 97.246428 179.85063 
L 97.374936 180.011106 
L 97.527878 180.170069 
L 97.704834 180.326652 
L 97.90538 180.480002 
L 98.129082 180.629275 
L 98.375495 180.773639 
L 98.644159 180.912271 
L 98.934594 181.044355 
L 99.246302 181.169078 
L 99.578758 181.285634 
L 99.931415 181.393216 
L 100.303695 181.491019 
L 100.694994 181.578235 
L 101.104675 181.654052 
L 101.532069 181.717649 
L 101.976473 181.768201 
L 102.43705 181.80498 
L 102.912039 181.82823 
L 103.399185 181.838677 
L 103.896196 181.837025 
L 104.400743 181.823955 
L 104.910464 181.800126 
L 105.422964 181.766172 
L 105.935817 181.722709 
L 106.446568 181.67033 
L 106.952737 181.609613 
L 107.451818 181.541116 
L 107.941287 181.465382 
L 108.418605 181.38294 
L 108.881217 181.294306 
L 109.326559 181.199987 
L 109.752066 181.100478 
L 110.155169 180.99627 
L 110.533304 180.88785 
L 110.883916 180.775701 
L 111.204463 180.660309 
L 111.492421 180.542163 
L 111.745289 180.421759 
L 111.960593 180.299603 
L 112.135893 180.176216 
L 112.268788 180.052136 
" style="fill:#006ba4;stroke:#000000;stroke-linejoin:miter;stroke-width:0.5;"/>
   </g>
   <g id="patch_6">
    <path clip-path="url(#p87cea402d4)" d="M 226.110338 212.747616 
L 226.886918 212.721554 
L 227.536731 212.665836 
L 228.06654 212.58105 
L 228.482428 212.467619 
L 228.78986 212.325816 
L 228.993734 212.155784 
L 229.098441 211.957558 
L 229.107914 211.731076 
L 229.025685 211.476205 
L 228.854936 211.192753 
L 228.598548 210.880497 
L 228.259152 210.539194 
L 227.839174 210.168611 
L 227.340879 209.76854 
L 226.766421 209.33883 
L 226.11788 208.879405 
L 225.397306 208.390293 
L 224.606757 207.871651 
L 223.748338 207.323796 
L 222.824232 206.74723 
L 221.836737 206.142669 
L 220.788293 205.511069 
L 219.681506 204.853655 
L 218.519174 204.171945 
L 217.304302 203.467769 
L 216.040116 202.743295 
L 214.730071 202.001039 
L 213.377854 201.243878 
L 211.987382 200.475059 
L 210.562796 199.698193 
L 209.108443 198.917257 
L 207.628864 198.136577 
L 206.128771 197.360811 
L 204.613018 196.594921 
L 203.086577 195.844146 
L 201.554503 195.113958 
L 200.021905 194.410018 
L 198.493914 193.738132 
L 196.975654 193.104189 
L 195.472208 192.514107 
L 193.9886 191.973769 
L 192.529769 191.488962 
L 191.100554 191.065309 
L 189.705684 190.708201 
L 188.349772 190.422736 
L 187.037316 190.213647 
L 185.772704 190.085239 
L 184.560228 190.041325 
L 183.404104 190.085159 
L 182.308442 190.219225 
L 181.276299 190.441722 
L 180.309826 190.746661 
L 179.411347 191.127476 
L 178.583432 191.577296 
L 177.828899 192.089049 
L 177.150822 192.655562 
L 176.552522 193.269662 
L 176.037553 193.924254 
L 175.609683 194.612407 
L 175.272873 195.327421 
L 175.03124 196.062891 
L 174.889029 196.812753 
L 174.850571 197.571335 
L 174.920247 198.333379 
L 175.102439 199.094073 
L 175.401486 199.849059 
L 175.821633 200.594441 
L 176.36698 201.32678 
L 177.041422 202.04309 
L 177.84859 202.740818 
L 178.791788 203.417826 
L 179.873917 204.072365 
L 181.097405 204.70305 
L 182.464122 205.308831 
L 183.974169 205.88903 
L 185.617209 206.443814 
L 187.377408 206.973709 
L 189.238573 207.479218 
L 191.184321 207.960809 
L 193.198212 208.418896 
L 195.263895 208.853837 
L 197.365242 209.265928 
L 199.486497 209.655401 
L 201.612403 210.022423 
L 203.72833 210.3671 
L 205.82038 210.689474 
L 207.875477 210.989526 
L 209.88143 211.26718 
L 211.826978 211.522293 
L 213.701807 211.754661 
L 215.496541 211.964011 
L 217.202711 212.149996 
L 218.812698 212.312186 
L 220.319657 212.450053 
L 221.717422 212.562967 
L 223.000394 212.650169 
L 224.163415 212.710756 
L 225.201629 212.74366 
L 226.110338 212.747616 
" style="fill:#ababab;opacity:0.333333;stroke:#000000;stroke-linejoin:miter;stroke-width:0.5;"/>
   </g>
   <g id="patch_7">
    <path clip-path="url(#p87cea402d4)" d="M 218.123417 209.884263 
L 218.564272 209.876921 
L 218.925189 209.846863 
L 219.209531 209.794801 
L 219.420447 209.721377 
L 219.56089 209.627164 
L 219.633635 209.512687 
L 219.641296 209.378421 
L 219.586347 209.224813 
L 219.471139 209.052281 
L 219.297916 208.861232 
L 219.068832 208.652064 
L 218.78597 208.425181 
L 218.451357 208.180997 
L 218.066976 207.919951 
L 217.634788 207.642508 
L 217.156736 207.349176 
L 216.634765 207.040506 
L 216.070835 206.717108 
L 215.466923 206.379654 
L 214.825045 206.028887 
L 214.147256 205.665628 
L 213.43566 205.290782 
L 212.69242 204.905346 
L 211.919761 204.510411 
L 211.119974 204.107169 
L 210.295418 203.696915 
L 209.448526 203.281052 
L 208.5818 202.861087 
L 207.697817 202.438636 
L 206.79922 202.015423 
L 205.888722 201.593274 
L 204.969096 201.174115 
L 204.043177 200.759967 
L 203.113851 200.35294 
L 202.184051 199.955223 
L 201.256753 199.569076 
L 200.334966 199.19682 
L 199.421728 198.840821 
L 198.520099 198.503481 
L 197.633151 198.187222 
L 196.763969 197.894469 
L 195.915639 197.627637 
L 195.091247 197.389107 
L 194.293875 197.181217 
L 193.526596 197.006237 
L 192.792474 196.86635 
L 192.094559 196.763636 
L 191.435893 196.70005 
L 190.819503 196.677402 
L 190.248362 196.697264 
L 189.724425 196.759347 
L 189.248648 196.861515 
L 188.821966 197.001426 
L 188.445343 197.176628 
L 188.119775 197.38459 
L 187.846287 197.622728 
L 187.625933 197.888426 
L 187.459797 198.179062 
L 187.348982 198.492024 
L 187.29461 198.824735 
L 187.297817 199.174666 
L 187.359739 199.539352 
L 187.48151 199.916408 
L 187.664249 200.303537 
L 187.909051 200.698541 
L 188.216975 201.09933 
L 188.589034 201.503929 
L 189.026178 201.910479 
L 189.529287 202.317243 
L 190.099149 202.722606 
L 190.736453 203.125076 
L 191.441769 203.523284 
L 192.215532 203.915978 
L 193.058028 204.302022 
L 193.968832 204.680407 
L 194.942639 205.050321 
L 195.971648 205.411065 
L 197.048026 205.76198 
L 198.163962 206.102447 
L 199.311705 206.431876 
L 200.483594 206.749701 
L 201.672094 207.055379 
L 202.869824 207.348382 
L 204.069585 207.628196 
L 205.264383 207.894314 
L 206.447451 208.146238 
L 207.612262 208.383468 
L 208.752541 208.605506 
L 209.86227 208.811844 
L 210.935689 209.001963 
L 211.967289 209.17533 
L 212.951803 209.331387 
L 213.884189 209.469547 
L 214.75961 209.58919 
L 215.573403 209.689649 
L 216.321054 209.770205 
L 216.998158 209.830077 
L 217.600382 209.86841 
L 218.123417 209.884263 
" style="fill:#ababab;opacity:0.5;stroke:#000000;stroke-linejoin:miter;stroke-width:0.5;"/>
   </g>
   <g id="patch_8">
    <path clip-path="url(#p87cea402d4)" d="M 206.427259 205.644447 
L 206.420808 205.641141 
L 206.401809 205.631401 
L 206.370783 205.615488 
L 206.328251 205.593659 
L 206.274733 205.566167 
L 206.210745 205.533261 
L 206.136803 205.495188 
L 206.05342 205.452192 
L 205.961111 205.404515 
L 205.86039 205.352402 
L 205.751769 205.296093 
L 205.635764 205.235832 
L 205.512888 205.171862 
L 205.383658 205.104427 
L 205.24859 205.033776 
L 205.108203 204.960156 
L 204.963015 204.88382 
L 204.81355 204.805022 
L 204.660328 204.724021 
L 204.503877 204.641078 
L 204.344724 204.556459 
L 204.183397 204.470434 
L 204.020429 204.383276 
L 203.856354 204.295264 
L 203.691707 204.206681 
L 203.527027 204.117814 
L 203.362855 204.028956 
L 203.199733 203.940404 
L 203.038206 203.85246 
L 202.878821 203.765428 
L 202.722126 203.67962 
L 202.568672 203.595351 
L 202.419011 203.512938 
L 202.273697 203.432706 
L 202.133283 203.354979 
L 201.998328 203.280087 
L 201.869387 203.208363 
L 201.747019 203.14014 
L 201.631782 203.075754 
L 201.524236 203.015545 
L 201.424939 202.959851 
L 201.334451 202.909011 
L 201.253331 202.863363 
L 201.182136 202.823246 
L 201.121426 202.788995 
L 201.071755 202.760945 
L 201.03368 202.739427 
L 201.007753 202.724765 
L 200.994527 202.717283 
L 200.994527 202.717283 
L 201.007753 202.724765 
L 201.03368 202.739427 
L 201.071755 202.760945 
L 201.121426 202.788995 
L 201.182136 202.823246 
L 201.253331 202.863363 
L 201.334451 202.909011 
L 201.424939 202.959851 
L 201.524236 203.015545 
L 201.631782 203.075754 
L 201.747019 203.14014 
L 201.869387 203.208363 
L 201.998328 203.280087 
L 202.133283 203.354979 
L 202.273697 203.432706 
L 202.419011 203.512938 
L 202.568672 203.595351 
L 202.722126 203.67962 
L 202.878821 203.765428 
L 203.038206 203.85246 
L 203.199733 203.940404 
L 203.362855 204.028956 
L 203.527027 204.117814 
L 203.691707 204.206681 
L 203.856354 204.295264 
L 204.020429 204.383276 
L 204.183397 204.470434 
L 204.344724 204.556459 
L 204.503877 204.641078 
L 204.660328 204.724021 
L 204.81355 204.805022 
L 204.963015 204.88382 
L 205.108203 204.960156 
L 205.24859 205.033776 
L 205.383658 205.104427 
L 205.512888 205.171862 
L 205.635764 205.235832 
L 205.751769 205.296093 
L 205.86039 205.352402 
L 205.961111 205.404515 
L 206.05342 205.452192 
L 206.136803 205.495188 
L 206.210745 205.533261 
L 206.274733 205.566167 
L 206.328251 205.593659 
L 206.370783 205.615488 
L 206.401809 205.631401 
L 206.420808 205.641141 
L 206.427259 205.644447 
" style="fill:#ababab;stroke:#000000;stroke-linejoin:miter;stroke-width:0.5;"/>
   </g>
   <g id="patch_9">
    <path clip-path="url(#p87cea402d4)" d="M 142.179835 71.229058 
L 141.823869 68.567822 
L 141.491591 66.093554 
L 141.184108 63.805054 
L 140.90125 61.699324 
L 140.641828 59.771935 
L 140.403866 58.017374 
L 140.184806 56.429383 
L 139.981684 55.001257 
L 139.791268 53.726114 
L 139.610175 52.597125 
L 139.434954 51.607704 
L 139.262148 50.751668 
L 139.088336 50.023367 
L 138.910152 49.417781 
L 138.7243 48.930605 
L 138.527549 48.558313 
L 138.316723 48.298208 
L 138.088688 48.148471 
L 137.840326 48.108196 
L 137.568518 48.177435 
L 137.270121 48.357239 
L 136.941945 48.649704 
L 136.580734 49.058027 
L 136.183159 49.586567 
L 135.745812 50.240895 
L 135.265935 51.025125 
L 134.742273 51.939061 
L 134.174048 52.982548 
L 133.56084 54.15587 
L 132.902646 55.459557 
L 132.199939 56.894189 
L 131.453744 58.460215 
L 130.665721 60.157764 
L 129.838252 61.986464 
L 128.974522 63.945269 
L 128.078608 66.032283 
L 127.155553 68.244615 
L 126.211425 70.57823 
L 125.25337 73.027842 
L 124.28963 75.58682 
L 123.329548 78.247142 
L 122.383531 80.999376 
L 121.462992 83.832707 
L 120.580254 86.735007 
L 119.748415 89.692946 
L 118.981193 92.692143 
L 118.292729 95.717346 
L 117.697373 98.752646 
L 117.209447 101.781702 
L 116.842905 104.788086 
L 116.609076 107.757964 
L 116.516193 110.68025 
L 116.571007 113.544218 
L 116.778651 116.339431 
L 117.142429 119.055758 
L 117.663629 121.683382 
L 118.341368 124.212784 
L 119.172472 126.634725 
L 120.151398 128.940204 
L 121.270219 131.120411 
L 122.518644 133.166672 
L 123.884114 135.070382 
L 125.351943 136.822931 
L 126.905516 138.415626 
L 128.526542 139.839596 
L 130.195343 141.085704 
L 131.891175 142.144439 
L 133.592582 143.005805 
L 135.277747 143.65921 
L 136.924863 144.093343 
L 138.512488 144.296057 
L 140.019896 144.254266 
L 141.427416 143.953846 
L 142.716764 143.379584 
L 143.87201 142.516952 
L 144.884959 141.366109 
L 145.752844 139.935096 
L 146.475362 138.232395 
L 147.054445 136.267257 
L 147.494055 134.050098 
L 147.799998 131.592888 
L 147.979738 128.909486 
L 148.0422 126.015934 
L 147.997561 122.930646 
L 147.857019 119.674504 
L 147.63254 116.270824 
L 147.336584 112.745179 
L 146.981806 109.125097 
L 146.580754 105.439608 
L 146.145562 101.718697 
L 145.687658 97.992659 
L 145.217501 94.291423 
L 144.744359 90.643863 
L 144.276129 87.077158 
L 143.81923 83.616235 
L 143.378541 80.283323 
L 142.957404 77.097647 
L 142.557678 74.075265 
L 142.179835 71.229058 
" style="fill:#595959;opacity:0.333333;stroke:#000000;stroke-linejoin:miter;stroke-width:0.5;"/>
   </g>
   <g id="patch_10">
    <path clip-path="url(#p87cea402d4)" d="M 138.239422 76.248129 
L 138.098814 74.630188 
L 137.948063 73.099654 
L 137.789511 71.657933 
L 137.624969 70.305958 
L 137.455771 69.044242 
L 137.282825 67.872936 
L 137.106667 66.791883 
L 136.927501 65.800685 
L 136.745255 64.898762 
L 136.559611 64.08541 
L 136.370051 63.359861 
L 136.175889 62.721335 
L 135.976298 62.169095 
L 135.77034 61.70249 
L 135.556989 61.321006 
L 135.335148 61.0243 
L 135.103672 60.812246 
L 134.861379 60.684965 
L 134.607068 60.64286 
L 134.339531 60.686651 
L 134.057567 60.817406 
L 133.759997 61.036565 
L 133.445683 61.34598 
L 133.113539 61.747938 
L 132.762567 62.24518 
L 132.392157 62.838777 
L 132.002447 63.526007 
L 131.593908 64.303927 
L 131.167288 65.169757 
L 130.723608 66.120805 
L 130.264171 67.154385 
L 129.790568 68.267749 
L 129.304684 69.458023 
L 128.808706 70.722147 
L 128.305127 72.056823 
L 127.796746 73.458469 
L 127.286674 74.92318 
L 126.778322 76.446696 
L 126.275397 78.024377 
L 125.781887 79.651186 
L 125.302038 81.321684 
L 124.840333 83.03003 
L 124.401457 84.769987 
L 123.99026 86.534942 
L 123.611716 88.317929 
L 123.270874 90.11166 
L 122.972802 91.908563 
L 122.722535 93.700822 
L 122.525012 95.480423 
L 122.384966 97.239263 
L 122.305714 98.970623 
L 122.289015 100.669206 
L 122.336105 102.329738 
L 122.447703 103.946898 
L 122.623965 105.515324 
L 122.864449 107.029613 
L 123.168086 108.484314 
L 123.533157 109.87393 
L 123.957284 111.192909 
L 124.437422 112.435637 
L 124.969869 113.596429 
L 125.550289 114.669524 
L 126.173738 115.649072 
L 126.834708 116.529124 
L 127.527182 117.303625 
L 128.244698 117.966405 
L 128.980424 118.511171 
L 129.727245 118.931505 
L 130.477855 119.22086 
L 131.224862 119.372567 
L 131.960892 119.379847 
L 132.678712 119.235826 
L 133.37134 118.933573 
L 134.032176 118.466141 
L 134.655281 117.827688 
L 135.23673 117.021731 
L 135.774143 116.056813 
L 136.265975 114.941865 
L 136.711443 113.686202 
L 137.110449 112.299559 
L 137.463507 110.792106 
L 137.771665 109.174458 
L 138.036427 107.457664 
L 138.259678 105.653182 
L 138.443605 103.772835 
L 138.590621 101.82875 
L 138.70329 99.833283 
L 138.784256 97.798924 
L 138.836175 95.738201 
L 138.861648 93.663564 
L 138.863167 91.587281 
L 138.843057 89.521319 
L 138.803434 87.477244 
L 138.746163 85.466121 
L 138.672828 83.498433 
L 138.584705 81.584014 
L 138.482745 79.732003 
L 138.367562 77.950813 
L 138.239422 76.248129 
" style="fill:#595959;opacity:0.5;stroke:#000000;stroke-linejoin:miter;stroke-width:0.5;"/>
   </g>
   <g id="patch_11">
    <path clip-path="url(#p87cea402d4)" d="M 133.638281 82.108798 
L 133.617114 81.586625 
L 133.583239 81.088853 
L 133.537585 80.616141 
L 133.481019 80.169123 
L 133.414345 79.748412 
L 133.338309 79.354595 
L 133.253598 78.988238 
L 133.160848 78.649887 
L 133.060643 78.340068 
L 132.953522 78.059292 
L 132.83998 77.808056 
L 132.720471 77.586846 
L 132.595416 77.396139 
L 132.465203 77.23641 
L 132.330193 77.108131 
L 132.190726 77.011777 
L 132.047122 76.94783 
L 131.899686 76.916783 
L 131.748718 76.919141 
L 131.594509 76.95543 
L 131.437357 77.026198 
L 131.277561 77.132018 
L 131.115438 77.273498 
L 130.951318 77.451279 
L 130.785561 77.666037 
L 130.618519 77.917634 
L 130.450517 78.20431 
L 130.281925 78.52414 
L 130.113162 78.875221 
L 129.944694 79.255661 
L 129.777029 79.663575 
L 129.61072 80.097074 
L 129.446355 80.554264 
L 129.28456 81.033235 
L 129.125992 81.532062 
L 128.97134 82.048796 
L 128.821319 82.581464 
L 128.67667 83.128066 
L 128.538153 83.686569 
L 128.406548 84.254909 
L 128.282647 84.830991 
L 128.167256 85.412683 
L 128.061184 85.997821 
L 127.965246 86.584206 
L 127.880255 87.169608 
L 127.80702 87.751763 
L 127.746339 88.328378 
L 127.698998 88.897131 
L 127.665764 89.455673 
L 127.647367 90.001654 
L 127.644103 90.533214 
L 127.655821 91.04899 
L 127.682307 91.547624 
L 127.723291 92.027743 
L 127.778455 92.487957 
L 127.847423 92.92686 
L 127.929768 93.343029 
L 128.025007 93.735025 
L 128.132604 94.101396 
L 128.251968 94.440672 
L 128.382458 94.751371 
L 128.523383 95.031996 
L 128.674006 95.28104 
L 128.833545 95.496988 
L 129.001179 95.678313 
L 129.176053 95.823486 
L 129.357281 95.930974 
L 129.543952 95.999245 
L 129.735138 96.026771 
L 129.9299 96.012032 
L 130.127295 95.953522 
L 130.326384 95.849754 
L 130.526242 95.699264 
L 130.725964 95.500622 
L 130.924665 95.252739 
L 131.121408 94.957232 
L 131.315268 94.617127 
L 131.505392 94.23549 
L 131.690993 93.815414 
L 131.871345 93.360012 
L 132.045779 92.872413 
L 132.213682 92.355754 
L 132.374487 91.813176 
L 132.527672 91.24782 
L 132.672757 90.662821 
L 132.809295 90.0613 
L 132.936868 89.446362 
L 133.055087 88.82109 
L 133.163583 88.18854 
L 133.262001 87.551738 
L 133.35 86.913674 
L 133.427247 86.277299 
L 133.49341 85.645524 
L 133.548156 85.021215 
L 133.591145 84.407193 
L 133.622027 83.806234 
L 133.640437 83.221066 
L 133.645991 82.654374 
L 133.638281 82.108798 
" style="fill:#595959;stroke:#000000;stroke-linejoin:miter;stroke-width:0.5;"/>
   </g>
   <g id="patch_12">
    <path clip-path="url(#p87cea402d4)" d="M 194.945505 130.099167 
L 192.51145 126.199807 
L 190.078436 122.338773 
L 187.664706 118.542302 
L 185.287112 114.835473 
L 182.960839 111.241696 
L 180.69919 107.782291 
L 178.513448 104.476186 
L 176.412818 101.339731 
L 174.404443 98.38664 
L 172.493492 95.628033 
L 170.683295 93.072585 
L 168.975537 90.726745 
L 167.37047 88.595018 
L 165.867151 86.680283 
L 164.463684 84.984132 
L 163.157465 83.507216 
L 161.945417 82.249582 
L 160.824209 81.210998 
L 159.790477 80.391256 
L 158.841013 79.79045 
L 157.972964 79.40923 
L 157.184012 79.249031 
L 156.472555 79.312283 
L 155.837902 79.60259 
L 155.280444 80.124855 
L 154.799429 80.879974 
L 154.390882 81.859666 
L 154.051883 83.055632 
L 153.780987 84.460437 
L 153.578093 86.067186 
L 153.44434 87.869211 
L 153.381999 89.859788 
L 153.394365 92.031872 
L 153.485651 94.377861 
L 153.660869 96.889386 
L 153.925699 99.557139 
L 154.286344 102.370744 
L 154.749363 105.318662 
L 155.321495 108.388152 
L 156.009458 111.565285 
L 156.819744 114.834999 
L 157.758395 118.181216 
L 158.83078 121.587001 
L 160.041381 125.034764 
L 161.393578 128.506496 
L 162.889464 131.98403 
L 164.529676 135.449311 
L 166.313265 138.884674 
L 168.237603 142.273106 
L 170.29823 145.598536 
L 172.486645 148.847126 
L 174.790229 152.007159 
L 177.194549 155.067904 
L 179.683693 158.019636 
L 182.24057 160.853698 
L 184.847218 163.562539 
L 187.485153 166.139712 
L 190.135699 168.579865 
L 192.780315 170.878686 
L 195.400901 173.032834 
L 197.980057 175.039842 
L 200.501305 176.897998 
L 202.949253 178.606209 
L 205.30971 180.163847 
L 207.569739 181.570585 
L 209.717661 182.826223 
L 211.743006 183.930496 
L 213.636421 184.88289 
L 215.389537 185.682436 
L 216.994807 186.327506 
L 218.445306 186.815591 
L 219.734523 187.143074 
L 220.85613 187.304983 
L 221.803736 187.294728 
L 222.571507 187.104886 
L 223.160613 186.735299 
L 223.575418 186.188778 
L 223.819638 185.466617 
L 223.896351 184.568793 
L 223.808086 183.49422 
L 223.556914 182.240997 
L 223.144582 180.806673 
L 222.572645 179.188539 
L 221.842636 177.383921 
L 220.95624 175.390512 
L 219.915482 173.206715 
L 218.722933 170.832002 
L 217.3819 168.267285 
L 215.896628 165.515276 
L 214.272474 162.58084 
L 212.516054 159.4713 
L 210.635356 156.196693 
L 208.639796 152.769949 
L 206.540212 149.206968 
L 204.348796 145.526595 
L 202.078936 141.750465 
L 199.745003 137.902728 
L 197.362058 134.009659 
L 194.945505 130.099167 
" style="fill:#5f9ed1;opacity:0.333333;stroke:#000000;stroke-linejoin:miter;stroke-width:0.5;"/>
   </g>
   <g id="patch_13">
    <path clip-path="url(#p87cea402d4)" d="M 191.222492 132.105332 
L 189.845174 129.912264 
L 188.452223 127.742415 
L 187.051478 125.605577 
L 185.650395 123.511372 
L 184.256013 121.469159 
L 182.874916 119.487958 
L 181.513216 117.57638 
L 180.176529 115.742573 
L 178.869974 113.994181 
L 177.598172 112.338324 
L 176.365264 110.781587 
L 175.174931 109.330031 
L 174.03043 107.989206 
L 172.93463 106.764192 
L 171.890066 105.659637 
L 170.898987 104.67981 
L 169.963424 103.82866 
L 169.08525 103.109882 
L 168.266251 102.526982 
L 167.5082 102.083347 
L 166.812933 101.782315 
L 166.182427 101.627244 
L 165.618886 101.621575 
L 165.124824 101.768896 
L 164.703136 102.072968 
L 164.355034 102.533979 
L 164.078092 103.145007 
L 163.869991 103.898575 
L 163.728958 104.787438 
L 163.653698 105.804507 
L 163.64335 106.942779 
L 163.697425 108.195274 
L 163.815754 109.55498 
L 163.998429 111.014806 
L 164.245756 112.567539 
L 164.558194 114.205822 
L 164.936302 115.92213 
L 165.380685 117.708764 
L 165.891943 119.55785 
L 166.470613 121.461355 
L 167.117119 123.411102 
L 167.831725 125.398801 
L 168.614487 127.416086 
L 169.465208 129.454554 
L 170.383398 131.505815 
L 171.368244 133.561539 
L 172.418573 135.613506 
L 173.532834 137.653657 
L 174.709075 139.674141 
L 175.94488 141.667391 
L 177.236155 143.626773 
L 178.577094 145.546532 
L 179.961389 147.421143 
L 181.382332 149.24529 
L 182.832865 151.013879 
L 184.305645 152.722041 
L 185.793097 154.365135 
L 187.287484 155.938749 
L 188.780968 157.438683 
L 190.265672 158.860945 
L 191.733732 160.201726 
L 193.177359 161.457377 
L 194.588876 162.624379 
L 195.960759 163.699304 
L 197.285664 164.678776 
L 198.556453 165.559422 
L 199.766197 166.337818 
L 200.908182 167.010433 
L 201.9759 167.573564 
L 202.963032 168.023271 
L 203.863427 168.355304 
L 204.671067 168.565025 
L 205.380038 168.647333 
L 205.984481 168.59658 
L 206.479115 168.407316 
L 206.863491 168.080623 
L 207.139664 167.620753 
L 207.309726 167.031571 
L 207.375795 166.316624 
L 207.340029 165.479241 
L 207.204648 164.522634 
L 206.971951 163.449993 
L 206.644351 162.264586 
L 206.224394 160.969848 
L 205.714794 159.569475 
L 205.118453 158.067503 
L 204.438492 156.468391 
L 203.678263 154.777085 
L 202.841372 152.999081 
L 201.931686 151.140472 
L 200.95333 149.207981 
L 199.910688 147.208983 
L 198.808381 145.15151 
L 197.651247 143.04424 
L 196.444305 140.896472 
L 195.19271 138.71808 
L 193.901705 136.519463 
L 192.576556 134.311471 
L 191.222492 132.105332 
" style="fill:#5f9ed1;opacity:0.5;stroke:#000000;stroke-linejoin:miter;stroke-width:0.5;"/>
   </g>
   <g id="patch_14">
    <path clip-path="url(#p87cea402d4)" d="M 189.831541 138.696768 
L 189.421703 138.120183 
L 188.975993 137.51735 
L 188.498188 136.89238 
L 187.992043 136.249424 
L 187.461281 135.592665 
L 186.909596 134.92631 
L 186.340642 134.254582 
L 185.758033 133.581712 
L 185.165336 132.911931 
L 184.566067 132.249461 
L 183.963686 131.598505 
L 183.361596 130.963241 
L 182.763139 130.347815 
L 182.171597 129.75633 
L 181.590186 129.192845 
L 181.022065 128.661368 
L 180.470331 128.165852 
L 179.938029 127.710194 
L 179.428154 127.298233 
L 178.94366 126.933751 
L 178.487468 126.620476 
L 178.062478 126.362082 
L 177.67158 126.162195 
L 177.317668 126.024398 
L 177.003646 125.952218 
L 176.731008 125.946876 
L 176.498506 126.005167 
L 176.30466 126.123397 
L 176.14807 126.297889 
L 176.027414 126.524989 
L 175.941435 126.801058 
L 175.888937 127.122478 
L 175.868776 127.485649 
L 175.879849 127.886988 
L 175.921092 128.32293 
L 175.991468 128.789927 
L 176.08996 129.284448 
L 176.215566 129.802984 
L 176.367292 130.34204 
L 176.544141 130.898144 
L 176.745112 131.467844 
L 176.969193 132.047713 
L 177.215353 132.634345 
L 177.482539 133.224361 
L 177.769672 133.814408 
L 178.075638 134.401162 
L 178.399289 134.981326 
L 178.739438 135.551635 
L 179.094854 136.10885 
L 179.464264 136.64983 
L 179.846464 137.172984 
L 180.240332 137.678254 
L 180.644717 138.165644 
L 181.058444 138.635157 
L 181.480314 139.086785 
L 181.909108 139.520514 
L 182.34359 139.936319 
L 182.782509 140.334165 
L 183.224606 140.714003 
L 183.668612 141.075771 
L 184.113254 141.419393 
L 184.557254 141.744776 
L 184.999339 142.051814 
L 185.438234 142.34038 
L 185.87267 142.610336 
L 186.301386 142.861521 
L 186.723129 143.09376 
L 187.136656 143.30686 
L 187.540735 143.50061 
L 187.93415 143.674783 
L 188.315698 143.829133 
L 188.684191 143.963399 
L 189.038458 144.077302 
L 189.377347 144.170547 
L 189.69972 144.242824 
L 190.004459 144.293809 
L 190.290465 144.323162 
L 190.556657 144.330528 
L 190.80197 144.315544 
L 191.02536 144.27783 
L 191.225799 144.216997 
L 191.402277 144.132646 
L 191.553801 144.02437 
L 191.679393 143.891753 
L 191.778094 143.734374 
L 191.848956 143.551807 
L 191.89105 143.343622 
L 191.903458 143.109389 
L 191.885278 142.848679 
L 191.835619 142.561067 
L 191.753604 142.246131 
L 191.638368 141.903459 
L 191.489059 141.532651 
L 191.304837 141.13332 
L 191.084875 140.705096 
L 190.828358 140.247635 
L 190.534485 139.760613 
L 190.20247 139.243743 
L 189.831541 138.696768 
" style="fill:#5f9ed1;stroke:#000000;stroke-linejoin:miter;stroke-width:0.5;"/>
   </g>
   <g id="matplotlib.axis_1"/>
   <g id="matplotlib.axis_2"/>
   <g id="line2d_1">
    <path clip-path="url(#p87cea402d4)" d="M 119.440107 141.141004 
L 118.920598 142.613234 
L 118.400188 144.076119 
L 117.879067 145.529087 
L 117.357425 146.971582 
L 116.835448 148.403065 
L 116.313321 149.823015 
L 115.791227 151.23093 
L 115.269345 152.626327 
L 114.747852 154.008743 
L 114.226922 155.377735 
L 113.706723 156.732879 
L 113.187424 158.073775 
L 112.669185 159.400041 
L 112.152164 160.711318 
L 111.636517 162.00727 
L 111.122392 163.287578 
L 110.609934 164.551949 
L 110.099284 165.800109 
L 109.590576 167.031807 
L 109.083941 168.246813 
L 108.579505 169.444917 
L 108.077389 170.625931 
L 107.577706 171.789688 
L 107.080569 172.93604 
L 106.586081 174.064859 
L 106.094342 175.176039 
L 105.605448 176.26949 
L 105.119487 177.345143 
L 104.636545 178.402946 
L 104.156699 179.442864 
L 103.680026 180.464883 
L 103.206593 181.469 
L 102.736465 182.455232 
L 102.269702 183.423611 
L 101.806359 184.374183 
L 101.346486 185.307008 
L 100.890128 186.222161 
L 100.437326 187.11973 
L 99.988117 187.999813 
L 99.542534 188.862524 
L 99.100605 189.707984 
L 98.662354 190.536327 
L 98.227802 191.347697 
L 97.796966 192.142248 
L 97.36986 192.92014 
L 96.946492 193.681545 
L 96.526869 194.426639 
L 96.110994 195.155608 
L 95.698868 195.868644 
L 95.290487 196.565944 
L 94.885847 197.24771 
L 94.484937 197.914153 
L 94.087749 198.565483 
L 93.694267 199.201918 
L 93.304477 199.823678 
L 92.918361 200.430986 
L 92.535899 201.02407 
L 92.157069 201.603157 
L 91.781848 202.168478 
L 91.410209 202.720265 
" style="fill:none;stroke:#000000;stroke-linecap:square;stroke-width:0.5;"/>
   </g>
   <g id="line2d_2">
    <path clip-path="url(#p87cea402d4)" d="M 146.079875 193.455933 
L 144.432476 192.975297 
L 142.796946 192.494091 
L 141.174035 192.012501 
L 139.56447 191.530709 
L 137.968957 191.048896 
L 136.388175 190.567238 
L 134.822781 190.08591 
L 133.273404 189.605083 
L 131.740648 189.124925 
L 130.225088 188.645599 
L 128.727273 188.167264 
L 127.247721 187.690075 
L 125.786923 187.214181 
L 124.34534 186.73973 
L 122.923405 186.26686 
L 121.52152 185.795708 
L 120.140059 185.326404 
L 118.779363 184.859073 
L 117.439749 184.393834 
L 116.1215 183.9308 
L 114.824873 183.470081 
L 113.550095 183.01178 
L 112.297366 182.555992 
L 111.066856 182.102811 
L 109.858712 181.652321 
L 108.67305 181.204603 
L 107.509964 180.759732 
L 106.369519 180.317777 
L 105.251758 179.878802 
L 104.156699 179.442864 
L 103.084339 179.010018 
L 102.034651 178.580311 
L 101.007586 178.153785 
L 100.003077 177.730479 
L 99.021035 177.310426 
L 98.061354 176.893653 
L 97.123909 176.480185 
L 96.208559 176.07004 
L 95.315146 175.663234 
L 94.443497 175.259777 
L 93.593426 174.859676 
L 92.764732 174.462933 
L 91.957201 174.069549 
L 91.170611 173.679519 
L 90.404723 173.292834 
L 89.659294 172.909484 
L 88.934069 172.529455 
L 88.228783 172.15273 
L 87.543167 171.77929 
L 86.876942 171.409111 
L 86.229823 171.042169 
L 85.601522 170.678437 
L 84.991744 170.317887 
L 84.40019 169.960486 
L 83.826557 169.606201 
L 83.27054 169.254998 
L 82.731831 168.90684 
L 82.21012 168.561689 
L 81.705095 168.219506 
L 81.216446 167.880251 
" style="fill:none;stroke:#000000;stroke-linecap:square;stroke-width:0.5;"/>
   </g>
   <g id="line2d_3">
    <path clip-path="url(#p87cea402d4)" d="M 175.951363 206.611535 
L 176.967705 206.520301 
L 177.978795 206.429798 
L 178.984508 206.340038 
L 179.984718 206.251033 
L 180.979306 206.162793 
L 181.968153 206.075329 
L 182.951146 205.98865 
L 183.928173 205.902766 
L 184.899128 205.817686 
L 185.863907 205.733419 
L 186.822408 205.649974 
L 187.774535 205.567358 
L 188.720194 205.485578 
L 189.659295 205.404643 
L 190.591751 205.324558 
L 191.517479 205.245331 
L 192.436399 205.166968 
L 193.348436 205.089473 
L 194.253516 205.012852 
L 195.15157 204.937111 
L 196.042532 204.862254 
L 196.92634 204.788284 
L 197.802935 204.715206 
L 198.672261 204.643023 
L 199.534267 204.571737 
L 200.388903 204.501353 
L 201.236125 204.431872 
L 202.075889 204.363295 
L 202.908157 204.295626 
L 203.732893 204.228864 
L 204.550065 204.163011 
L 205.359643 204.098068 
L 206.161602 204.034035 
L 206.955917 203.970912 
L 207.742569 203.908698 
L 208.521541 203.847393 
L 209.292818 203.786996 
L 210.056388 203.727506 
L 210.812244 203.668922 
L 211.56038 203.611241 
L 212.300792 203.554461 
L 213.03348 203.498581 
L 213.758445 203.443597 
L 214.475694 203.389508 
L 215.185232 203.336309 
L 215.88707 203.283998 
L 216.581219 203.232571 
L 217.267694 203.182024 
L 217.946512 203.132354 
L 218.61769 203.083556 
L 219.28125 203.035625 
L 219.937215 202.988558 
L 220.58561 202.94235 
L 221.226462 202.896995 
L 221.859799 202.852488 
L 222.485651 202.808825 
L 223.104053 202.766 
L 223.715037 202.724007 
L 224.318639 202.68284 
L 224.914896 202.642494 
" style="fill:none;stroke:#000000;stroke-linecap:square;stroke-width:0.5;"/>
   </g>
   <g id="line2d_4">
    <path clip-path="url(#p87cea402d4)" d="M 222.587174 212.938325 
L 222.015667 212.721453 
L 221.439943 212.500186 
L 220.860022 212.274452 
L 220.275922 212.044183 
L 219.687666 211.809306 
L 219.095278 211.569751 
L 218.498782 211.325445 
L 217.898207 211.076318 
L 217.29358 210.822296 
L 216.684933 210.563307 
L 216.072298 210.29928 
L 215.45571 210.03014 
L 214.835206 209.755815 
L 214.210824 209.476233 
L 213.582604 209.19132 
L 212.950589 208.901004 
L 212.314824 208.605211 
L 211.675356 208.303869 
L 211.032234 207.996906 
L 210.385508 207.684249 
L 209.735232 207.365826 
L 209.081462 207.041566 
L 208.424254 206.711396 
L 207.76367 206.375247 
L 207.099771 206.033047 
L 206.432621 205.684726 
L 205.762288 205.330216 
L 205.088841 204.969447 
L 204.412352 204.602353 
L 203.732893 204.228864 
L 203.050542 203.848916 
L 202.365376 203.462443 
L 201.677477 203.06938 
L 200.986929 202.669664 
L 200.293816 202.263233 
L 199.598227 201.850026 
L 198.900253 201.429983 
L 198.199986 201.003046 
L 197.497521 200.569157 
L 196.792957 200.128262 
L 196.086393 199.680306 
L 195.377931 199.225238 
L 194.667677 198.763005 
L 193.955736 198.293561 
L 193.242219 197.816857 
L 192.527237 197.332849 
L 191.810903 196.841495 
L 191.093333 196.342752 
L 190.374646 195.836583 
L 189.654961 195.322951 
L 188.934402 194.801822 
L 188.213091 194.273165 
L 187.491157 193.73695 
L 186.768726 193.193151 
L 186.04593 192.641744 
L 185.322899 192.082708 
L 184.599769 191.516024 
L 183.876674 190.941677 
L 183.153752 190.359654 
L 182.431141 189.769945 
" style="fill:none;stroke:#000000;stroke-linecap:square;stroke-width:0.5;"/>
   </g>
   <g id="line2d_5">
    <path clip-path="url(#p87cea402d4)" d="M 152.629043 155.664469 
L 151.090149 153.309541 
L 149.60319 150.929919 
L 148.169896 148.528569 
L 146.791797 146.108527 
L 145.470212 143.672878 
L 144.206245 141.224742 
L 143.000783 138.767253 
L 141.854497 136.30355 
L 140.767837 133.836752 
L 139.741042 131.369947 
L 138.774139 128.906175 
L 137.86695 126.448416 
L 137.019102 123.999571 
L 136.230032 121.562456 
L 135.499001 119.139785 
L 134.825101 116.734163 
L 134.207268 114.348079 
L 133.644297 111.983891 
L 133.134851 109.643829 
L 132.677476 107.329983 
L 132.270614 105.044302 
L 131.912618 102.788593 
L 131.601763 100.564516 
L 131.336258 98.373587 
L 131.114264 96.217176 
L 130.933899 94.096511 
L 130.793256 92.012679 
L 130.69041 89.966633 
L 130.623429 87.959187 
L 130.590385 85.991033 
L 130.58936 84.062735 
L 130.618458 82.17474 
L 130.67581 80.327384 
L 130.75958 78.520896 
L 130.867971 76.755403 
L 130.999234 75.03094 
L 131.151664 73.347454 
L 131.323612 71.704811 
L 131.513484 70.102799 
L 131.719746 68.541139 
L 131.940919 67.019489 
L 132.175592 65.537449 
L 132.422411 64.094565 
L 132.680088 62.690338 
L 132.947395 61.324228 
L 133.22317 59.995657 
L 133.506311 58.704014 
L 133.795776 57.448662 
L 134.090585 56.228938 
L 134.389815 55.04416 
L 134.692602 53.893629 
L 134.998136 52.776633 
L 135.305661 51.69245 
L 135.614473 50.640349 
L 135.923917 49.619596 
L 136.233388 48.629452 
L 136.542325 47.669179 
L 136.850211 46.73804 
L 137.156573 45.835303 
L 137.460975 44.960236 
" style="fill:none;stroke:#000000;stroke-linecap:square;stroke-width:0.5;"/>
   </g>
   <g id="line2d_6">
    <path clip-path="url(#p87cea402d4)" d="M 116.619518 104.490103 
L 117.130885 103.818838 
L 117.639452 103.150873 
L 118.145173 102.486268 
L 118.648005 101.825083 
L 119.147902 101.167375 
L 119.644823 100.513201 
L 120.138726 99.862614 
L 120.629572 99.215669 
L 121.117323 98.572416 
L 121.60194 97.932905 
L 122.083389 97.297184 
L 122.561634 96.665299 
L 123.036643 96.037297 
L 123.508382 95.41322 
L 123.976822 94.793109 
L 124.441932 94.177006 
L 124.903685 93.564949 
L 125.362053 92.956974 
L 125.817011 92.353117 
L 126.268534 91.753412 
L 126.7166 91.157891 
L 127.161186 90.566585 
L 127.602272 89.979523 
L 128.039838 89.396732 
L 128.473866 88.818238 
L 128.904339 88.244066 
L 129.331242 87.674239 
L 129.754559 87.108778 
L 130.174277 86.547703 
L 130.590385 85.991033 
L 131.00287 85.438784 
L 131.411723 84.890973 
L 131.816936 84.347612 
L 132.2185 83.808716 
L 132.616408 83.274295 
L 133.010657 82.744359 
L 133.401239 82.218917 
L 133.788154 81.697977 
L 134.171397 81.181543 
L 134.550968 80.669621 
L 134.926866 80.162214 
L 135.299092 79.659325 
L 135.667647 79.160954 
L 136.032534 78.667101 
L 136.393756 78.177764 
L 136.751317 77.692941 
L 137.105224 77.212628 
L 137.455481 76.736821 
L 137.802095 76.265513 
L 138.145075 75.798697 
L 138.484428 75.336366 
L 138.820165 74.878509 
L 139.152295 74.425118 
L 139.480829 73.976181 
L 139.805778 73.531686 
L 140.127155 73.091621 
L 140.444972 72.655971 
L 140.759244 72.224722 
L 141.069984 71.797858 
L 141.377207 71.375363 
" style="fill:none;stroke:#000000;stroke-linecap:square;stroke-width:0.5;"/>
   </g>
   <g id="line2d_7">
    <path clip-path="url(#p87cea402d4)" d="M 232.964555 197.283219 
L 231.599082 195.996143 
L 230.203164 194.656369 
L 228.777255 193.262957 
L 227.321917 191.815074 
L 225.837823 190.311994 
L 224.325766 188.75312 
L 222.786659 187.137988 
L 221.22154 185.46628 
L 219.63157 183.73784 
L 218.01804 181.952677 
L 216.382368 180.110981 
L 214.726099 178.213128 
L 213.050905 176.259694 
L 211.358578 174.251454 
L 209.65103 172.189396 
L 207.930286 170.07472 
L 206.198479 167.908843 
L 204.457838 165.6934 
L 202.710686 163.430242 
L 200.959423 161.121438 
L 199.206518 158.769262 
L 197.454496 156.376194 
L 195.705925 153.944908 
L 193.963402 151.478263 
L 192.229539 148.979286 
L 190.506946 146.451162 
L 188.798216 143.897218 
L 187.105912 141.320903 
L 185.432548 138.725767 
L 183.780576 136.115446 
L 182.152371 133.493639 
L 180.550216 130.864083 
L 178.976291 128.230535 
L 177.432659 125.59675 
L 175.921253 122.966454 
L 174.443872 120.34333 
L 173.002167 117.73099 
L 171.597638 115.132963 
L 170.231626 112.552669 
L 168.90531 109.993406 
L 167.619705 107.458335 
L 166.375659 104.950463 
L 165.173859 102.472635 
L 164.014826 100.027518 
L 162.898922 97.617601 
L 161.826355 95.245179 
L 160.797183 92.912357 
L 159.811321 90.62104 
L 158.868547 88.372938 
L 157.968512 86.169563 
L 157.110748 84.012231 
L 156.294675 81.902068 
L 155.519614 79.840011 
L 154.784791 77.826819 
L 154.089352 75.863075 
L 153.432369 73.949196 
L 152.812849 72.08544 
L 152.229746 70.271917 
L 151.681967 68.508595 
L 151.168381 66.795312 
" style="fill:none;stroke:#000000;stroke-linecap:square;stroke-width:0.5;"/>
   </g>
   <g id="line2d_8">
    <path clip-path="url(#p87cea402d4)" d="M 194.010011 129.550633 
L 193.733726 129.73634 
L 193.453345 129.924157 
L 193.168828 130.114105 
L 192.880134 130.306202 
L 192.587222 130.500467 
L 192.290053 130.696921 
L 191.988585 130.895582 
L 191.68278 131.09647 
L 191.372596 131.299603 
L 191.057996 131.505001 
L 190.738938 131.712682 
L 190.415386 131.922664 
L 190.087299 132.134965 
L 189.754639 132.349605 
L 189.417368 132.566599 
L 189.07545 132.785967 
L 188.728845 133.007725 
L 188.377519 133.231891 
L 188.021433 133.458481 
L 187.660554 133.687511 
L 187.294844 133.918999 
L 186.92427 134.152959 
L 186.548797 134.389407 
L 186.168391 134.628359 
L 185.78302 134.86983 
L 185.392651 135.113833 
L 184.997253 135.360383 
L 184.596794 135.609493 
L 184.191245 135.861176 
L 183.780576 136.115446 
L 183.364759 136.372315 
L 182.943765 136.631794 
L 182.517569 136.893894 
L 182.086144 137.158627 
L 181.649465 137.426003 
L 181.207509 137.69603 
L 180.760252 137.96872 
L 180.307673 138.244079 
L 179.84975 138.522116 
L 179.386464 138.802839 
L 178.917797 139.086253 
L 178.443732 139.372366 
L 177.964251 139.661182 
L 177.479341 139.952706 
L 176.988988 140.246941 
L 176.493179 140.543893 
L 175.991904 140.843562 
L 175.485154 141.14595 
L 174.972919 141.451059 
L 174.455195 141.758889 
L 173.931975 142.069438 
L 173.403257 142.382707 
L 172.869038 142.698692 
L 172.329317 143.01739 
L 171.784097 143.338797 
L 171.233381 143.662909 
L 170.677172 143.989719 
L 170.115477 144.319221 
L 169.548304 144.651408 
L 168.975664 144.98627 
" style="fill:none;stroke:#000000;stroke-linecap:square;stroke-width:0.5;"/>
   </g>
   <g id="line2d_9">
    <path clip-path="url(#p87cea402d4)" d="M 23.381818 222.547134 
L 277.018182 222.547134 
" style="fill:none;stroke:#000000;stroke-linecap:square;"/>
   </g>
   <g id="line2d_10">
    <path clip-path="url(#p87cea402d4)" d="M 150.2 18.697134 
L 23.381818 222.547134 
" style="fill:none;stroke:#000000;stroke-linecap:square;"/>
   </g>
   <g id="line2d_11">
    <path clip-path="url(#p87cea402d4)" d="M 150.2 18.697134 
L 277.018182 222.547134 
" style="fill:none;stroke:#000000;stroke-linecap:square;"/>
   </g>
  </g>
 </g>
 <defs>
  <clipPath id="p87cea402d4">
   <rect height="235.385705" width="279" x="10.7" y="10.7"/>
  </clipPath>
 </defs>
</svg>
